<?xml version="1.0" encoding="iso-8859-1"?>
<!-- Generator: Adobe Illustrator 18.0.0, SVG Export Plug-In . SVG Version: 6.00 Build 0)  -->
<!DOCTYPE svg PUBLIC "-//W3C//DTD SVG 1.1//EN" "http://www.w3.org/Graphics/SVG/1.1/DTD/svg11.dtd">
<svg xmlns="http://www.w3.org/2000/svg" xmlns:xlink="http://www.w3.org/1999/xlink" version="1.1" id="Capa_1" x="0px" y="0px" viewBox="0 0 58 58" style="enable-background:new 0 0 58 58;" xml:space="preserve" width="512px" height="512px">
<g>
	<path d="M52.276,30.239c-1.128-1.127-3.092-1.127-4.221,0L32.664,45.63l-2.121,7.779l-0.519,0.519   c-0.388,0.388-0.389,1.014-0.006,1.405l-0.005,0.02l0.019-0.005c0.194,0.191,0.446,0.288,0.699,0.288   c0.256,0,0.512-0.098,0.707-0.293l0.52-0.52l7.778-2.121l15.39-15.391c1.164-1.164,1.164-3.058,0-4.222L52.276,30.239z    M34.973,46.15l10.243-10.243l4.243,4.243L39.216,50.393L34.973,46.15z M34.07,48.075l3.22,3.22l-4.428,1.208L34.07,48.075z    M53.711,35.896l-2.839,2.839l-4.243-4.242l2.839-2.839c0.373-0.373,1.022-0.372,1.394-0.001l2.85,2.85   C54.096,34.887,54.096,35.513,53.711,35.896z" fill="#ffffff"/>
	<path d="M57,2.365H1c-0.552,0-1,0.447-1,1v44c0,0.553,0.448,1,1,1h27.808l1.171-4.293l15.955-15.954   c0.745-0.745,1.654-1.264,2.643-1.535l-8.513-7.804l-9.181,10.054l4.807,4.807c0.391,0.391,0.391,1.023,0,1.414   s-1.023,0.391-1.414,0L23.974,24.754L7.661,39.116c-0.19,0.167-0.426,0.249-0.66,0.249c-0.277,0-0.553-0.114-0.751-0.339   c-0.365-0.415-0.325-1.047,0.09-1.412l17.017-14.982c0.396-0.348,0.994-0.329,1.368,0.044l4.743,4.743l9.794-10.727   c0.179-0.196,0.429-0.313,0.694-0.325c0.264-0.006,0.524,0.083,0.72,0.262l10.779,9.88c1.105,0.242,2.122,0.79,2.942,1.609   l2.851,2.851c0.284,0.284,0.535,0.592,0.753,0.918V3.365C58,2.813,57.552,2.365,57,2.365z M16,21.503   c-3.071,0-5.569-2.498-5.569-5.568c0-3.071,2.498-5.569,5.569-5.569s5.569,2.498,5.569,5.569   C21.569,19.005,19.071,21.503,16,21.503z" fill="#ffffff"/>
</g>
<g>
</g>
<g>
</g>
<g>
</g>
<g>
</g>
<g>
</g>
<g>
</g>
<g>
</g>
<g>
</g>
<g>
</g>
<g>
</g>
<g>
</g>
<g>
</g>
<g>
</g>
<g>
</g>
<g>
</g>
</svg>
